<?xml version="1.0" standalone="no"?>
<!DOCTYPE svg PUBLIC "-//W3C//DTD SVG 20010904//EN"
 "http://www.w3.org/TR/2001/REC-SVG-20010904/DTD/svg10.dtd">
<svg version="1.0" xmlns="http://www.w3.org/2000/svg"
 width="1280.000000pt" height="1280.000000pt" viewBox="0 0 1280.000000 1280.000000"
 preserveAspectRatio="xMidYMid meet">
<metadata>
Created by potrace 1.15, written by Peter Selinger 2001-2017
</metadata>
<g transform="translate(0.000000,1280.000000) scale(0.100000,-0.100000)"
fill="#000000" stroke="none">
<path d="M4785 12293 c-103 -25 -121 -36 -136 -88 -19 -64 -31 -72 -78 -50
-38 17 -41 17 -78 -1 -42 -21 -45 -35 -28 -137 7 -45 6 -50 -22 -80 -17 -18
-36 -42 -42 -54 -34 -67 -175 29 -240 164 -44 89 -112 136 -165 112 -24 -12
-29 -10 -61 25 -34 38 -36 38 -94 34 -110 -8 -151 -62 -151 -200 0 -152 -79
-131 -281 74 -87 88 -140 134 -172 148 -114 51 -464 65 -557 23 -70 -31 -85
-54 -85 -129 0 -70 -5 -79 -55 -91 -30 -8 -35 -14 -38 -41 -4 -36 -21 -41 -62
-17 -39 22 -106 19 -131 -6 l-21 -21 27 -28 c62 -64 -26 -65 -152 -1 -77 39
-130 75 -234 159 -29 24 -80 58 -113 75 -57 30 -68 32 -161 32 -160 0 -198
-29 -161 -125 34 -88 41 -120 29 -138 -17 -27 -59 -16 -163 43 -213 121 -391
171 -469 130 -38 -19 -64 -85 -56 -138 4 -22 3 -37 -1 -35 -99 48 -113 53
-166 53 -67 0 -101 -21 -136 -84 -71 -125 15 -382 205 -618 27 -34 72 -101 99
-149 27 -48 71 -112 97 -141 39 -42 46 -54 33 -59 -9 -3 -22 -4 -30 -1 -25 10
-64 -31 -82 -85 -9 -28 -33 -70 -54 -92 -20 -23 -40 -50 -44 -60 -10 -27 -25
-8 -37 45 -12 51 -30 74 -79 99 -88 45 -176 33 -234 -31 -54 -59 -61 -101 -37
-217 26 -129 31 -139 101 -228 62 -80 70 -98 45 -108 -20 -7 -19 -52 4 -101
19 -42 54 -77 135 -135 32 -24 58 -53 77 -90 15 -30 42 -75 58 -100 52 -76 39
-110 -43 -110 -37 0 -68 9 -123 36 -71 35 -74 36 -99 19 -23 -15 -25 -21 -20
-60 l7 -43 -33 1 -33 2 1 -58 c2 -97 51 -180 183 -313 61 -62 113 -123 117
-137 19 -78 -27 -102 -168 -87 -99 10 -152 0 -169 -32 -19 -34 -39 -188 -39
-293 0 -182 48 -305 160 -407 69 -63 100 -114 100 -163 0 -17 14 -39 41 -66
l40 -39 -20 -27 c-27 -33 -26 -78 1 -133 19 -38 28 -46 55 -48 90 -9 55 -132
-52 -185 -16 -8 -56 -18 -87 -21 -70 -9 -119 -40 -135 -86 -16 -46 -6 -169 19
-237 22 -59 49 -85 148 -143 37 -22 80 -54 95 -71 40 -49 32 -75 -43 -131
-109 -81 -146 -146 -147 -258 0 -85 24 -146 83 -212 31 -34 35 -58 11 -58 -6
0 -29 -13 -53 -29 -112 -77 -144 -280 -75 -467 45 -120 106 -183 211 -215 34
-11 80 -35 102 -53 55 -44 79 -56 115 -56 44 0 46 -15 5 -52 -45 -41 -66 -81
-94 -183 -12 -44 -36 -107 -54 -140 -18 -33 -36 -73 -40 -88 -9 -36 -28 -30
-38 11 -11 40 -31 41 -99 6 -114 -57 -223 -210 -259 -362 -11 -47 -10 -61 10
-135 12 -45 29 -90 37 -99 8 -9 37 -22 65 -29 57 -15 67 -28 44 -61 -23 -33
-20 -75 9 -103 28 -29 30 -29 110 -10 57 14 61 14 85 -5 14 -11 42 -31 63 -45
25 -17 37 -33 37 -48 0 -53 -111 -160 -193 -187 -78 -25 -134 -96 -122 -156 5
-30 2 -38 -30 -68 -28 -27 -35 -41 -35 -72 0 -50 28 -103 70 -131 28 -19 46
-23 117 -23 100 0 123 -9 123 -51 0 -46 -21 -77 -107 -158 -43 -41 -106 -101
-141 -134 -81 -77 -97 -110 -116 -239 -31 -207 -17 -365 38 -433 22 -28 30
-30 102 -35 85 -5 75 1 114 -80 4 -8 15 -14 25 -12 40 8 47 -5 25 -47 -24 -48
-26 -98 -4 -129 19 -27 34 -28 68 -1 75 59 53 -60 -38 -201 -24 -37 -75 -101
-113 -143 -39 -42 -85 -107 -104 -144 -32 -63 -34 -72 -32 -156 3 -105 22
-150 66 -155 15 -2 61 9 103 23 144 50 159 15 62 -140 -67 -110 -119 -224
-143 -314 -35 -135 -9 -196 92 -216 l32 -6 -26 -52 c-31 -61 -40 -135 -23
-177 19 -45 73 -88 137 -106 50 -14 69 -15 132 -5 96 15 243 85 366 173 50 36
136 88 193 117 56 29 117 68 134 87 40 42 71 46 62 9 -9 -36 16 -59 96 -90 37
-14 78 -37 91 -51 13 -15 35 -30 48 -35 19 -8 21 -12 11 -24 -7 -8 -24 -15
-37 -15 -53 0 -91 -29 -124 -95 -26 -53 -30 -70 -24 -104 9 -57 43 -102 95
-129 38 -20 55 -23 115 -19 130 10 209 34 291 90 116 79 115 79 139 58 18 -17
25 -17 66 -7 64 17 97 41 160 116 43 51 74 75 145 114 143 78 150 80 175 55
18 -18 21 -29 16 -72 -4 -29 -17 -65 -31 -86 -34 -49 -45 -82 -36 -107 11 -27
34 -36 66 -24 41 16 47 13 41 -20 -6 -26 -3 -31 20 -36 15 -4 52 -2 83 4 94
20 171 66 282 167 137 127 185 148 228 105 20 -20 20 -28 14 -144 -8 -144 -3
-159 58 -174 85 -21 242 -35 327 -29 168 12 282 57 375 150 75 74 88 83 157
96 40 9 64 20 84 41 32 33 50 37 79 15 29 -22 74 -18 134 10 41 19 52 29 52
48 0 33 18 47 63 47 33 0 47 -7 82 -43 42 -41 57 -76 70 -160 4 -24 19 -53 40
-75 l34 -37 94 1 c160 3 228 34 293 135 74 115 122 157 170 145 14 -4 39 -28
59 -60 20 -29 48 -62 63 -73 140 -103 296 -100 436 11 27 21 41 26 44 18 2 -7
18 -32 36 -55 86 -116 312 -147 513 -72 121 46 178 102 209 205 9 31 31 69 53
93 46 51 61 78 61 111 0 35 20 33 56 -5 34 -37 84 -60 179 -83 39 -10 104 -32
145 -51 41 -18 88 -38 103 -44 29 -12 28 -31 -2 -31 -9 0 -26 -6 -36 -14 -19
-14 -19 -15 5 -66 59 -125 288 -269 432 -270 61 0 178 27 200 47 9 8 24 37 33
64 9 26 22 50 28 52 7 3 26 -4 44 -15 28 -17 35 -17 65 -5 58 24 63 38 44 113
-15 60 -15 68 -1 90 8 13 20 24 25 24 5 0 16 13 25 30 24 46 48 54 92 31 49
-24 135 -116 153 -161 35 -91 113 -148 172 -126 27 10 31 9 57 -22 49 -61 151
-54 211 14 28 32 30 40 30 112 0 90 14 126 52 130 48 6 111 -38 234 -164 150
-154 175 -167 364 -190 171 -21 295 -15 368 16 70 30 82 49 82 131 0 72 0 72
78 94 17 5 22 14 22 37 0 33 -2 33 87 7 48 -15 89 -5 107 23 8 13 6 22 -12 41
-32 34 -28 47 16 47 73 -1 228 -86 372 -205 66 -55 159 -101 220 -110 63 -8
187 9 211 31 25 23 24 48 -6 122 -40 99 -31 143 28 128 12 -3 63 -29 112 -57
112 -64 259 -124 345 -140 55 -10 71 -9 102 4 47 20 70 56 72 112 1 36 4 44
16 39 64 -28 128 -45 154 -40 77 15 130 78 142 170 16 112 -78 339 -206 500
-38 50 -92 128 -118 175 -26 46 -68 108 -94 137 -27 28 -48 55 -48 58 0 3 16
6 35 6 44 0 67 24 94 99 13 35 34 70 56 90 19 17 35 38 35 46 0 8 4 15 10 15
13 0 30 -34 30 -63 0 -38 33 -71 101 -102 58 -26 66 -27 112 -16 63 14 102 43
127 91 24 47 25 100 5 200 -21 102 -29 120 -97 208 -60 79 -68 99 -43 108 22
9 18 44 -12 105 -22 41 -46 67 -103 111 -54 41 -82 71 -100 105 -14 27 -40 72
-57 99 -42 64 -43 101 -5 115 38 15 93 4 159 -31 107 -57 153 -31 116 65 -5
16 -2 17 30 11 33 -6 37 -5 43 19 10 40 -23 148 -65 213 -21 31 -72 91 -115
132 -77 74 -136 151 -136 177 0 8 11 25 25 39 25 25 26 25 153 18 117 -6 129
-5 151 13 49 40 76 296 47 443 -26 126 -64 197 -145 272 -77 71 -86 85 -102
158 -7 35 -18 56 -35 67 -41 26 -48 50 -25 80 25 31 26 45 5 106 -17 50 -45
77 -80 77 -24 0 -34 17 -34 61 0 60 116 139 204 139 38 0 89 30 112 65 14 21
16 43 12 125 -7 144 -26 177 -148 257 -111 73 -140 103 -140 144 0 23 8 35 41
57 80 53 109 85 141 150 44 88 45 161 5 248 -16 34 -44 77 -63 95 l-34 33 43
24 c101 57 138 127 145 272 4 106 -12 189 -54 271 -48 95 -106 143 -204 169
-25 6 -56 22 -70 35 -49 46 -103 75 -136 75 -41 0 -43 12 -7 40 43 33 61 67
94 175 17 55 44 125 60 155 16 30 34 68 39 83 12 35 33 30 40 -9 7 -38 27 -41
94 -9 116 55 252 252 263 380 5 64 -15 170 -40 208 -9 13 -38 30 -71 40 -61
20 -66 29 -38 76 16 30 16 32 -3 68 -22 42 -33 44 -143 28 -49 -7 -55 -6 -82
20 -16 15 -39 33 -52 39 -16 8 -24 22 -26 44 -3 29 5 41 65 100 51 51 81 72
123 86 90 30 150 111 120 160 -11 18 -9 23 24 51 48 40 56 85 28 148 -28 64
-69 87 -152 87 -84 0 -137 15 -145 41 -4 11 2 38 15 63 20 43 59 82 212 218
100 89 122 135 143 291 26 201 14 328 -36 398 -24 34 -83 53 -134 43 -44 -8
-61 6 -76 58 -10 37 -12 40 -39 34 -40 -7 -43 4 -19 59 41 92 -6 172 -67 114
-55 -51 -57 33 -4 135 38 72 90 144 171 233 32 35 73 93 90 128 30 61 31 69
27 158 -6 149 -36 173 -157 126 -30 -11 -70 -19 -90 -17 -32 3 -36 6 -39 33
-2 22 14 56 62 133 104 167 168 349 152 435 -9 47 -56 87 -103 87 -19 0 -33 3
-31 8 2 4 16 31 31 60 61 117 39 212 -62 264 -130 68 -316 19 -539 -142 -45
-32 -128 -83 -185 -112 -56 -29 -121 -69 -143 -90 -50 -46 -69 -49 -61 -9 8
38 -21 64 -97 91 -32 11 -75 35 -96 54 -20 18 -43 35 -50 38 -25 8 0 27 45 34
56 8 87 32 114 87 23 48 28 125 10 160 -23 44 -64 78 -112 92 -45 13 -60 13
-158 -5 -130 -23 -154 -33 -244 -99 -72 -53 -101 -62 -112 -35 -4 12 -14 14
-41 9 -69 -13 -127 -51 -185 -123 -46 -57 -69 -76 -123 -102 -37 -17 -83 -42
-103 -56 -39 -26 -80 -31 -99 -12 -24 24 -14 98 23 164 42 74 45 110 11 125
-17 8 -29 8 -44 0 -34 -18 -44 -13 -40 22 l3 32 -67 -1 c-101 -1 -202 -54
-333 -175 -129 -119 -174 -140 -216 -98 -20 20 -20 28 -14 147 5 102 4 131 -7
146 -21 27 -121 46 -278 53 -228 9 -351 -30 -481 -153 -74 -71 -85 -76 -183
-99 -16 -3 -40 -19 -55 -36 -28 -32 -52 -37 -71 -14 -19 22 -89 19 -140 -7
-35 -18 -46 -29 -48 -51 -7 -59 -95 -61 -149 -4 -40 42 -63 88 -63 128 0 48
-37 117 -73 136 -25 12 -50 14 -122 10 -157 -11 -203 -34 -278 -142 -113 -164
-157 -179 -227 -75 -63 93 -197 160 -295 147 -68 -10 -148 -44 -195 -84 -25
-22 -45 -33 -47 -26 -10 29 -66 95 -100 117 -116 77 -333 72 -500 -9 -87 -43
-134 -94 -158 -173 -10 -32 -32 -72 -50 -92 -50 -54 -65 -82 -65 -117 0 -18
-5 -33 -11 -33 -7 0 -31 18 -55 39 -31 30 -61 45 -116 61 -145 42 -320 111
-326 129 -2 5 12 13 32 16 19 4 37 13 40 20 8 23 -41 109 -90 156 -84 80 -202
144 -314 169 -54 11 -58 11 -135 -7z"/>
</g>
</svg>
